<?xml version="1.0"?>
<svg xmlns="http://www.w3.org/2000/svg" xmlns:xlink="http://www.w3.org/1999/xlink" xmlns:svgjs="http://svgjs.com/svgjs" version="1.1" width="512" height="512" x="0" y="0" viewBox="0 0 512 512" style="enable-background:new 0 0 512 512" xml:space="preserve" class=""><g><g xmlns="http://www.w3.org/2000/svg"><path d="m1 272h120v70h-120z" fill="#ffffff" data-original="#000000" style="" class=""/><path d="m1 212v30h120v-45h-105c-8.284 0-15 6.716-15 15z" fill="#ffffff" data-original="#000000" style="" class=""/><path d="m1 497c0 8.284 6.716 15 15 15h30v-140h-45z" fill="#ffffff" data-original="#000000" style="" class=""/><path d="m76 372h45v140h-45z" fill="#ffffff" data-original="#000000" style="" class=""/><path d="m496 197h-105v45h120v-30c0-8.284-6.716-15-15-15z" fill="#ffffff" data-original="#000000" style="" class=""/><path d="m391 272h120v70h-120z" fill="#ffffff" data-original="#000000" style="" class=""/><path d="m391 497v15h45v-140h-45z" fill="#ffffff" data-original="#000000" style="" class=""/><path d="m466 512h30c8.284 0 15-6.716 15-15v-125h-45z" fill="#ffffff" data-original="#000000" style="" class=""/><path d="m271 409.58v102.42h30v-60c0-19.555-12.541-36.228-30-42.42z" fill="#ffffff" data-original="#000000" style="" class=""/><path d="m211 452v60h30v-102.42c-17.459 6.192-30 22.865-30 42.42z" fill="#ffffff" data-original="#000000" style="" class=""/><path d="m353 161-82-61.5v-24.5h10c33.037 0 59.924-26.84 60-59.859.019-8.327-6.673-15.141-15-15.141h-70c-8.284 0-15 6.716-15 15v60 24.5l-82 61.5c-5.036 3.777-8 9.705-8 16v335h30v-60c0-41.355 33.645-75 75-75s75 33.645 75 75v60h30v-335c0-6.295-2.964-12.223-8-16zm-142 163.5c0 8.284-6.716 15-15 15s-15-6.716-15-15v-30c0-8.284 6.716-15 15-15s15 6.716 15 15zm60 0c0 8.284-6.716 15-15 15s-15-6.716-15-15v-30c0-8.284 6.716-15 15-15s15 6.716 15 15zm-15-72.5c-24.813 0-45-20.187-45-45s20.187-45 45-45 45 20.187 45 45-20.187 45-45 45zm75 72.5c0 8.284-6.716 15-15 15s-15-6.716-15-15v-30c0-8.284 6.716-15 15-15s15 6.716 15 15z" fill="#ffffff" data-original="#000000" style="" class=""/><circle cx="256" cy="207" r="15" fill="#ffffff" data-original="#000000" style="" class=""/></g></g></svg>
